<svg width="26" height="26" viewBox="0 0 43 26" fill="none" xmlns="http://www.w3.org/2000/svg">
<path d="M32.2526 13.2185C32.0305 13.7606 31.8023 14.2965 31.5751 14.8298C31.029 16.1122 30.489 17.38 30.0556 18.6832C29.8855 19.1989 29.9912 19.8132 30.0941 20.411C30.1258 20.5947 30.1571 20.7769 30.1801 20.9541C30.3324 22.0902 30.5045 23.2214 30.6852 24.4099C30.7472 24.8176 30.8103 25.2321 30.8739 25.6559C30.3953 25.6559 29.9264 25.6582 29.4649 25.6604C28.1082 25.667 26.8157 25.6733 25.5281 25.6204C25.2257 25.6115 24.861 25.2035 24.6475 24.9019C22.9575 22.4801 21.8991 19.7743 21.063 16.7492C20.9948 16.9305 20.9385 17.0893 20.8875 17.2331C20.7988 17.4832 20.7263 17.6876 20.636 17.8848C19.5508 20.2267 18.4657 22.5599 17.3805 24.893C17.0959 25.4962 16.6333 25.7003 15.9484 25.6825C14.8566 25.6448 13.7648 25.6517 12.6252 25.6588C12.1588 25.6618 11.6843 25.6648 11.1986 25.6648C11.282 25.1212 11.3685 24.5944 11.4532 24.079C11.6572 22.8365 11.8504 21.6603 11.9635 20.4752C12.0347 19.7123 11.8924 18.8872 11.6522 18.1509C11.2707 17.0029 10.8254 15.8822 10.3588 14.7075C10.1728 14.2392 9.98334 13.7624 9.79319 13.2718C9.75643 13.368 9.72205 13.4607 9.68881 13.5503C9.59336 13.8076 9.50738 14.0394 9.40182 14.2565C9.15548 14.7861 8.91098 15.3167 8.66644 15.8473C7.83373 17.6542 7.00056 19.462 6.09298 21.2381C5.88839 21.6373 5.1857 21.9566 4.69648 21.9921C3.62315 22.0618 2.54527 22.0501 1.40457 22.0377C0.947705 22.0327 0.480762 22.0276 0 22.0276C0.0906711 21.4165 0.185589 20.8224 0.278721 20.2394C0.487086 18.9351 0.686514 17.6867 0.809458 16.4299C0.916195 15.3387 1.42321 14.5137 1.98358 13.6355C4.30512 9.98941 6.59105 6.31684 8.84144 2.63531C9.07119 2.26145 9.19822 1.82607 9.33424 1.35987C9.39832 1.14021 9.4644 0.913721 9.54416 0.683594H10.1579C10.2369 0.923082 10.2993 1.15635 10.3593 1.38058C10.4749 1.8125 10.5815 2.21085 10.7806 2.55539C12.2839 5.11445 13.8225 7.65006 15.4394 10.3146C15.8122 10.9291 16.1893 11.5505 16.571 12.1806C17.0522 11.3428 17.5421 10.5563 18.0191 9.79029C19.0678 8.10655 20.0547 6.52201 20.7516 4.71113C20.7783 4.61355 20.805 4.51598 20.805 4.39178H21.3564C21.4262 4.60321 21.4854 4.81027 21.5429 5.01133C21.6688 5.45141 21.7865 5.86271 21.988 6.22806C22.7894 7.6468 23.6259 9.05052 24.4938 10.5068C24.7818 10.9901 25.0732 11.4792 25.368 11.9765C25.4602 11.8608 25.5455 11.759 25.6241 11.6651C25.7806 11.4783 25.9108 11.3228 26.0173 11.1516C26.239 10.7898 26.4609 10.4281 26.6828 10.0662C28.1968 7.59774 29.7124 5.12666 31.1941 2.63531C31.4142 2.26741 31.5429 1.84392 31.6811 1.38876C31.7495 1.16345 31.8203 0.930392 31.9057 0.692474H32.5017C32.5933 0.938091 32.672 1.18279 32.7491 1.42243C32.9115 1.92714 33.0667 2.40939 33.32 2.83045C34.2206 4.29185 35.1172 5.76003 36.0142 7.22892C37.4912 9.64767 38.9694 12.0683 40.4691 14.4637C40.6826 14.8008 41.1618 15.9548 41.2241 16.3274C41.4409 17.6411 41.5756 18.6208 41.7286 19.7336C41.8205 20.4018 41.919 21.1179 42.0458 21.9832C41.5726 21.9832 41.105 21.9855 40.6417 21.9877C39.2674 21.9943 37.9303 22.0008 36.5932 21.9477C36.3264 21.9388 35.9795 21.5219 35.8283 21.2203C34.7165 18.8961 33.6402 16.563 32.5639 14.221C32.4803 14.0208 32.4211 13.8067 32.3623 13.594C32.3273 13.4673 32.2924 13.3411 32.2526 13.2185ZM20.9918 6.08609C20.7892 6.40442 20.629 6.66362 20.4819 6.90157C20.4159 7.00844 20.3525 7.11102 20.2891 7.21275C19.6852 8.19407 19.0985 9.18761 18.5119 10.181C17.163 12.4655 15.8144 14.7493 14.2584 16.8823C13.0007 18.5979 12.7301 20.4669 12.4515 22.3918C12.3281 23.244 12.2031 24.1071 11.9902 24.9728C12.4025 24.9728 12.7977 24.9687 13.1809 24.9648C14.0626 24.9557 14.8809 24.9473 15.6994 24.9906C16.3487 25.0261 16.749 24.8131 16.998 24.2188C17.5895 22.8305 18.1832 21.4444 18.7769 20.0583C19.3707 18.6721 19.9644 17.286 20.5559 15.8976C20.6686 15.6316 20.7733 15.3576 20.878 15.0837C20.9304 14.9466 20.9828 14.8095 21.0362 14.6734C21.4098 15.1968 21.5433 15.6936 21.6678 16.1815C22.415 19.0114 23.3845 21.7526 25.0389 24.1921C25.2346 24.476 25.537 24.8753 25.8038 24.893C26.8665 24.946 27.9291 24.9396 29.0324 24.9329C29.4068 24.9307 29.7859 24.9284 30.1712 24.9284C30.1102 24.5607 30.0477 24.2067 29.9869 23.8622C29.835 23.0016 29.6934 22.1997 29.6108 21.3888C29.4241 19.6501 28.7303 18.1775 27.7341 16.7492C26.5829 15.1043 25.5184 13.3985 24.4517 11.6893C24.109 11.1401 23.7661 10.5906 23.42 10.0427C22.8622 9.16496 22.3217 8.27426 21.7533 7.33764C21.506 6.93006 21.2534 6.51378 20.9918 6.08609ZM41.2986 21.2203C40.9606 18.417 40.6493 16.0219 39.2439 13.7242C39.1045 13.4937 38.9293 13.2276 38.748 12.9522C38.5246 12.6129 38.292 12.2594 38.1054 11.9411C38.0245 11.8531 37.9618 11.7469 37.8973 11.6376C37.8838 11.6147 37.8702 11.5916 37.8563 11.5685C35.9706 8.57006 34.0849 5.57158 32.1992 2.55539C32.1658 2.57762 32.1306 2.59724 32.0967 2.61615C32.0223 2.65762 31.954 2.6957 31.9235 2.75053C29.9844 5.93528 28.0454 9.12005 26.1241 12.3225C26.0263 12.4822 25.964 12.775 26.044 12.9081C26.8337 14.1513 27.6426 15.385 28.5233 16.7282C28.8429 17.2157 29.172 17.7176 29.513 18.2396C30.2658 16.2194 30.9501 14.3988 31.6186 12.6201C31.819 12.0868 32.018 11.5573 32.217 11.0274C32.5639 11.4798 32.6796 11.8967 32.7863 12.3137C33.5424 15.2234 34.5208 18.0444 36.2286 20.5461C36.4332 20.8389 36.8067 21.1848 37.1181 21.2026C38.0738 21.2462 39.034 21.2373 40.0232 21.2281C40.4425 21.2243 40.867 21.2203 41.2986 21.2203ZM12.3193 18.1065C12.386 18.1021 12.455 18.0954 12.5239 18.0888C12.5928 18.0821 12.6618 18.0755 12.7285 18.071C12.9484 17.7392 13.1695 17.4078 13.3907 17.0762C14.2341 15.812 15.0792 14.5453 15.8684 13.2452C16.0463 12.9524 15.9395 12.3314 15.7438 11.9943C15.0311 10.7996 14.282 9.62503 13.532 8.4489C13.1682 7.87839 12.8041 7.30751 12.4439 6.73378C11.8754 5.81966 11.3144 4.89799 10.7339 3.94417C10.4243 3.43547 10.1091 2.91762 9.78429 2.38689C9.6187 2.66023 9.47879 2.88236 9.35041 3.08618C9.2788 3.19987 9.21077 3.30787 9.14389 3.41587C8.51425 4.4353 7.89964 5.46556 7.28497 6.49593C5.89379 8.82797 4.50228 11.1606 2.93533 13.3694C1.72531 15.0764 1.47866 16.9245 1.22354 18.8359C1.11672 19.6363 1.00841 20.4478 0.827265 21.2647C1.22918 21.2647 1.61474 21.2606 1.98865 21.2567C2.84771 21.2476 3.64529 21.2391 4.43855 21.2824C5.12345 21.3179 5.56819 21.0962 5.82614 20.4663C6.42209 19.0602 7.02026 17.6564 7.61843 16.2525C8.2166 14.8486 8.81477 13.4448 9.41072 12.0387C9.49849 11.8379 9.57428 11.6311 9.66243 11.3906C9.72615 11.2167 9.79633 11.0252 9.88217 10.8056C10.3136 12.1008 10.7272 13.3383 11.1308 14.5459C11.5344 15.7535 11.928 16.9311 12.3193 18.1065Z" fill="black"/>
<path d="M32.2526 13.2185C32.0305 13.7606 31.8023 14.2965 31.5751 14.8298C31.029 16.1122 30.489 17.38 30.0556 18.6832C29.8855 19.1989 29.9912 19.8132 30.0941 20.411C30.1258 20.5947 30.1571 20.7769 30.1801 20.9541C30.3324 22.0902 30.5045 23.2214 30.6852 24.4099C30.7472 24.8176 30.8103 25.2321 30.8739 25.6559C30.3953 25.6559 29.9264 25.6582 29.4649 25.6604C28.1082 25.667 26.8157 25.6733 25.5281 25.6204C25.2257 25.6115 24.861 25.2035 24.6475 24.9019C22.9575 22.4801 21.8991 19.7743 21.063 16.7492C20.9948 16.9305 20.9385 17.0893 20.8875 17.2331C20.7988 17.4832 20.7263 17.6876 20.636 17.8848C19.5508 20.2267 18.4657 22.5599 17.3805 24.893C17.0959 25.4962 16.6333 25.7003 15.9484 25.6825C14.8566 25.6448 13.7648 25.6517 12.6252 25.6588C12.1588 25.6618 11.6843 25.6648 11.1986 25.6648C11.282 25.1212 11.3685 24.5944 11.4532 24.079C11.6572 22.8365 11.8504 21.6603 11.9635 20.4752C12.0347 19.7123 11.8924 18.8872 11.6522 18.1509C11.2707 17.0029 10.8254 15.8822 10.3588 14.7075C10.1728 14.2392 9.98334 13.7624 9.79319 13.2718C9.75643 13.368 9.72205 13.4607 9.68881 13.5503C9.59336 13.8076 9.50738 14.0394 9.40182 14.2565C9.15548 14.7861 8.91098 15.3167 8.66644 15.8473C7.83373 17.6542 7.00056 19.462 6.09298 21.2381C5.88839 21.6373 5.1857 21.9566 4.69648 21.9921C3.62315 22.0618 2.54527 22.0501 1.40457 22.0377C0.947705 22.0327 0.480762 22.0276 0 22.0276C0.0906711 21.4165 0.185589 20.8224 0.278721 20.2394C0.487086 18.9351 0.686514 17.6867 0.809458 16.4299C0.916195 15.3387 1.42321 14.5137 1.98358 13.6355C4.30512 9.98941 6.59105 6.31684 8.84144 2.63531C9.07119 2.26145 9.19822 1.82607 9.33424 1.35987C9.39832 1.14021 9.4644 0.913721 9.54416 0.683594H10.1579C10.2369 0.923082 10.2993 1.15635 10.3593 1.38058C10.4749 1.8125 10.5815 2.21085 10.7806 2.55539C12.2839 5.11445 13.8225 7.65006 15.4394 10.3146C15.8122 10.9291 16.1893 11.5505 16.571 12.1806C17.0522 11.3428 17.5421 10.5563 18.0191 9.79029C19.0678 8.10655 20.0547 6.52201 20.7516 4.71113C20.7783 4.61355 20.805 4.51598 20.805 4.39178H21.3564C21.4262 4.60321 21.4854 4.81027 21.5429 5.01133C21.6688 5.45141 21.7865 5.86271 21.988 6.22806C22.7894 7.6468 23.6259 9.05052 24.4938 10.5068C24.7818 10.9901 25.0732 11.4792 25.368 11.9765C25.4602 11.8608 25.5455 11.759 25.6241 11.6651C25.7806 11.4783 25.9108 11.3228 26.0173 11.1516C26.239 10.7898 26.4609 10.4281 26.6828 10.0662C28.1968 7.59774 29.7124 5.12666 31.1941 2.63531C31.4142 2.26741 31.5429 1.84392 31.6811 1.38876C31.7495 1.16345 31.8203 0.930392 31.9057 0.692474H32.5017C32.5933 0.938091 32.672 1.18279 32.7491 1.42243C32.9115 1.92714 33.0667 2.40939 33.32 2.83045C34.2206 4.29185 35.1172 5.76003 36.0142 7.22892C37.4912 9.64767 38.9694 12.0683 40.4691 14.4637C40.6826 14.8008 41.1618 15.9548 41.2241 16.3274C41.4409 17.6411 41.5756 18.6208 41.7286 19.7336C41.8205 20.4018 41.919 21.1179 42.0458 21.9832C41.5726 21.9832 41.105 21.9855 40.6417 21.9877C39.2674 21.9943 37.9303 22.0008 36.5932 21.9477C36.3264 21.9388 35.9795 21.5219 35.8283 21.2203C34.7165 18.8961 33.6402 16.563 32.5639 14.221C32.4803 14.0208 32.4211 13.8067 32.3623 13.594C32.3273 13.4673 32.2924 13.3411 32.2526 13.2185ZM20.9918 6.08609C20.7892 6.40442 20.629 6.66362 20.4819 6.90157C20.4159 7.00844 20.3525 7.11102 20.2891 7.21275C19.6852 8.19407 19.0985 9.18761 18.5119 10.181C17.163 12.4655 15.8144 14.7493 14.2584 16.8823C13.0007 18.5979 12.7301 20.4669 12.4515 22.3918C12.3281 23.244 12.2031 24.1071 11.9902 24.9728C12.4025 24.9728 12.7977 24.9687 13.1809 24.9648C14.0626 24.9557 14.8809 24.9473 15.6994 24.9906C16.3487 25.0261 16.749 24.8131 16.998 24.2188C17.5895 22.8305 18.1832 21.4444 18.7769 20.0583C19.3707 18.6721 19.9644 17.286 20.5559 15.8976C20.6686 15.6316 20.7733 15.3576 20.878 15.0837C20.9304 14.9466 20.9828 14.8095 21.0362 14.6734C21.4098 15.1968 21.5433 15.6936 21.6678 16.1815C22.415 19.0114 23.3845 21.7526 25.0389 24.1921C25.2346 24.476 25.537 24.8753 25.8038 24.893C26.8665 24.946 27.9291 24.9396 29.0324 24.9329C29.4068 24.9307 29.7859 24.9284 30.1712 24.9284C30.1102 24.5607 30.0477 24.2067 29.9869 23.8622C29.835 23.0016 29.6934 22.1997 29.6108 21.3888C29.4241 19.6501 28.7303 18.1775 27.7341 16.7492C26.5829 15.1043 25.5184 13.3985 24.4517 11.6893C24.109 11.1401 23.7661 10.5906 23.42 10.0427C22.8622 9.16496 22.3217 8.27426 21.7533 7.33764C21.506 6.93006 21.2534 6.51378 20.9918 6.08609ZM41.2986 21.2203C40.9606 18.417 40.6493 16.0219 39.2439 13.7242C39.1045 13.4937 38.9293 13.2276 38.748 12.9522C38.5246 12.6129 38.292 12.2594 38.1054 11.9411C38.0245 11.8531 37.9618 11.7469 37.8973 11.6376C37.8838 11.6147 37.8702 11.5916 37.8563 11.5685C35.9706 8.57006 34.0849 5.57158 32.1992 2.55539C32.1658 2.57762 32.1306 2.59724 32.0967 2.61615C32.0223 2.65762 31.954 2.6957 31.9235 2.75053C29.9844 5.93528 28.0454 9.12005 26.1241 12.3225C26.0263 12.4822 25.964 12.775 26.044 12.9081C26.8337 14.1513 27.6426 15.385 28.5233 16.7282C28.8429 17.2157 29.172 17.7176 29.513 18.2396C30.2658 16.2194 30.9501 14.3988 31.6186 12.6201C31.819 12.0868 32.018 11.5573 32.217 11.0274C32.5639 11.4798 32.6796 11.8967 32.7863 12.3137C33.5424 15.2234 34.5208 18.0444 36.2286 20.5461C36.4332 20.8389 36.8067 21.1848 37.1181 21.2026C38.0738 21.2462 39.034 21.2373 40.0232 21.2281C40.4425 21.2243 40.867 21.2203 41.2986 21.2203ZM12.3193 18.1065C12.386 18.1021 12.455 18.0954 12.5239 18.0888C12.5928 18.0821 12.6618 18.0755 12.7285 18.071C12.9484 17.7392 13.1695 17.4078 13.3907 17.0762C14.2341 15.812 15.0792 14.5453 15.8684 13.2452C16.0463 12.9524 15.9395 12.3314 15.7438 11.9943C15.0311 10.7996 14.282 9.62503 13.532 8.4489C13.1682 7.87839 12.8041 7.30751 12.4439 6.73378C11.8754 5.81966 11.3144 4.89799 10.7339 3.94417C10.4243 3.43547 10.1091 2.91762 9.78429 2.38689C9.6187 2.66023 9.47879 2.88236 9.35041 3.08618C9.2788 3.19987 9.21077 3.30787 9.14389 3.41587C8.51425 4.4353 7.89964 5.46556 7.28497 6.49593C5.89379 8.82797 4.50228 11.1606 2.93533 13.3694C1.72531 15.0764 1.47866 16.9245 1.22354 18.8359C1.11672 19.6363 1.00841 20.4478 0.827265 21.2647C1.22918 21.2647 1.61474 21.2606 1.98865 21.2567C2.84771 21.2476 3.64529 21.2391 4.43855 21.2824C5.12345 21.3179 5.56819 21.0962 5.82614 20.4663C6.42209 19.0602 7.02026 17.6564 7.61843 16.2525C8.2166 14.8486 8.81477 13.4448 9.41072 12.0387C9.49849 11.8379 9.57428 11.6311 9.66243 11.3906C9.72615 11.2167 9.79633 11.0252 9.88217 10.8056C10.3136 12.1008 10.7272 13.3383 11.1308 14.5459C11.5344 15.7535 11.928 16.9311 12.3193 18.1065Z" stroke="black"/>
</svg>
