<svg width="26" height="26" viewBox="0 0 46 48" fill="none" xmlns="http://www.w3.org/2000/svg">
<path d="M37.1489 16.6209C36.482 16.1464 35.7577 16.2487 35.1559 16.7922C34.7972 17.1165 34.5331 17.5308 34.2538 17.9269C33.6443 18.788 32.9392 19.5821 32.1546 20.2872C31.8485 20.5628 31.5538 20.8919 31.3002 21.1741C31.7298 13.5229 29.8766 5.87653 23.8088 0.744485C21.0361 -1.60053 20.7721 2.18536 20 3.9611C18.1611 8.19667 15.0363 11.8209 11.5039 14.7419C1.96795 22.7796 3.50833 32.1424 3.71499 33.1824C3.76283 33.7096 4.08431 36.5377 5.75481 39.6721C6.92875 41.8755 8.57916 43.8139 10.5893 45.2988C12.5277 46.7301 15.5998 47.7835 17.9764 47.9882C18.1821 48.0064 18.4003 48.016 18.583 47.9203C18.9198 47.7452 18.9982 47.2735 18.8633 46.9186C18.7284 46.5636 18.4414 46.2938 18.1792 46.0192C16.9823 44.7649 16.1519 43.1413 15.9538 41.4191C15.7558 39.697 16.2141 37.8868 17.3 36.5349C18.3878 35.1811 20.1751 33.9497 21.6628 33.0839C21.9441 33.9784 22.0465 35.4844 22.41 36.5846C23.3812 39.5286 25.8228 43.6656 31.9326 46.6574C32.2656 46.82 32.6588 46.8066 32.9793 46.6191C39.6211 42.7471 42.9889 36.0651 42.1872 28.3747C42.014 26.6994 39.6642 18.4101 37.1489 16.6209ZM39.8824 34.7917C38.7505 39.5334 35.2813 42.5959 32.3756 44.3956C22.7257 39.3688 23.9141 31.4373 23.9695 31.1015C24.0413 30.6881 23.8739 30.27 23.5371 30.0203C23.2003 29.7706 22.7526 29.7323 22.3775 29.9208C17.1814 32.5356 14.2738 35.7044 13.737 39.3391C13.3964 41.643 14.0805 43.6943 14.9158 45.2337C6.65607 41.7109 5.95094 33.3403 5.92224 32.9489C5.91841 32.8954 5.91076 32.8389 5.89928 32.7863C5.82178 32.4266 4.10248 23.8808 12.9267 16.4439C19.4929 11.0143 21.9269 5.56367 22.7813 2.8924C31.8858 10.1647 28.6672 23.6693 28.6328 23.81C28.5247 24.2434 28.6864 24.6988 29.0442 24.9667C29.402 25.2346 29.8852 25.2614 30.2698 25.0356C33.2491 23.2867 35.1454 21.1626 36.3356 19.3257C39.756 25.1284 40.9492 30.3246 39.8824 34.7917Z" fill="#DBDFE9"/>
<path d="M16.1013 2.09766C16.4237 4.92679 15.1665 7.63537 13.3755 9.76703C10.2105 13.6409 5.70518 16.051 3.19847 20.2693C2.75836 21.0261 2.42446 21.8767 2.14987 22.7081C1.65618 24.2772 1.38253 25.9228 1.32035 27.5704C1.26677 28.6917 1.32417 29.8302 1.43707 30.9468C1.52413 31.7017 1.64565 32.4565 1.78534 33.221C1.05533 31.8385 0.562597 30.3344 0.271743 28.7921C-0.192285 26.23 -0.0765122 23.5415 0.730991 21.0539C0.903207 20.4827 1.17396 19.8618 1.44186 19.3231C1.51074 19.1624 1.65714 18.9299 1.74133 18.7758C4.02033 14.8522 8.23483 12.3292 11.4381 9.48861C13.7467 7.49186 15.555 5.16693 16.1013 2.09766Z" fill="#DBDFE9"/>
<path d="M41.5625 21.541C47.2648 25.2877 47.3385 34.263 41.9509 38.3245C42.0983 38.0231 42.3318 37.5878 42.4801 37.2806C42.6303 36.9687 42.8235 36.5525 42.9546 36.2416C45.1638 31.0608 44.5705 26.2387 41.5625 21.541Z" fill="#DBDFE9"/>
</svg>
